<?xml version="1.0" encoding="utf-8"?>
<!-- Generator: Adobe Illustrator 21.0.0, SVG Export Plug-In . SVG Version: 6.00 Build 0)  -->
<svg version="1.1" id="Layer_1" xmlns="http://www.w3.org/2000/svg" xmlns:xlink="http://www.w3.org/1999/xlink" x="0px" y="0px"
	 viewBox="0 0 107 107" style="enable-background:new 0 0 107 107;" xml:space="preserve">
<style type="text/css">
	.st0{fill:url(#SVGID_1_);}
	.st1{fill:url(#SVGID_2_);}
	.st2{fill:#FFFFFF;}
</style>
<linearGradient id="SVGID_1_" gradientUnits="userSpaceOnUse" x1="53.5168" y1="-1.0112" x2="53.5168" y2="107.6184">
	<stop  offset="0" style="stop-color:#0086FF"/>
	<stop  offset="1" style="stop-color:#0044FE"/>
</linearGradient>
<path class="st0" d="M25.2,107C11.3,107,0,95.7,0,81.8V25.2C0,11.3,11.3,0,25.2,0h56.6C95.7,0,107,11.3,107,25.2v56.6
	c0,13.9-11.3,25.2-25.2,25.2H25.2z"/>
<linearGradient id="SVGID_2_" gradientUnits="userSpaceOnUse" x1="51.3163" y1="110.7354" x2="56.9981" y2="-36.9919">
	<stop  offset="0" style="stop-color:#0052FE"/>
	<stop  offset="1" style="stop-color:#0092FF"/>
</linearGradient>
<path class="st1" d="M81.8,106H25.2C11.8,106,1,95.2,1,81.8V25.2C1,11.8,11.8,1,25.2,1h56.6C95.2,1,106,11.8,106,25.2v56.6
	C106,95.2,95.2,106,81.8,106z"/>
<g>
	
		<image style="overflow:visible;opacity:0.24;" width="535" height="499" xlink:href="2A9D7706.png"  transform="matrix(0.24 0 0 0.24 -2.74 -1.44)">
	</image>
	<g>
		<g>
			<path class="st2" d="M86.1,40.6c-10.8,0.1-21.6,0-32.5,0c-10.8,0-21.6,0-32.5,0c-1.4,0-1.7,0.4-1.7,1.7c0.1,11.4,0,22.9,0,34.3
				c0,4.4,2.2,6.6,6.6,6.6c18.3,0,36.6,0,54.9,0c4.4,0,6.6-2.2,6.6-6.6c0-11.5,0-23,0-34.5C87.6,41,87.3,40.6,86.1,40.6z"/>
			<path class="st2" d="M20.9,38.2c10.9,0,21.8,0,32.6,0c10.8,0,21.7,0,32.5,0c1.3,0,1.6-0.4,1.5-1.6c-0.1-2.3,0-4.5,0-6.8
				c0-1.8-0.5-3.3-1.9-4.6c-1.4-1.3-3.1-1.5-4.9-1.5c-17.1,0-34.1,0-51.2,0c-1.4,0-2.7,0-4.1,0c-3.7,0.1-6,2.4-6,6.1
				c0,2.3,0.1,4.6,0,6.9C19.4,38,19.8,38.2,20.9,38.2z M49.3,27.3c2.1,0,3.8,1.6,3.8,3.8c0,2.1-1.6,3.8-3.7,3.8
				c-2.1,0-3.8-1.7-3.8-3.8C45.6,29,47.2,27.4,49.3,27.3z M37.6,27.3c2.1,0,3.8,1.6,3.8,3.8c0,2.1-1.7,3.8-3.8,3.8
				c-2.1,0-3.7-1.7-3.7-3.8C33.9,28.9,35.5,27.3,37.6,27.3z M25.9,27.3c2.1,0,3.8,1.7,3.8,3.8c0,2.1-1.7,3.8-3.8,3.8
				c-2.1,0-3.8-1.8-3.7-3.8C22.2,29,23.9,27.3,25.9,27.3z"/>
			<path class="st2" d="M26,32.4c0.8,0,1.3-0.6,1.3-1.5c-0.1-0.8-0.5-1.3-1.4-1.2c-0.8,0-1.3,0.6-1.2,1.4
				C24.6,31.9,25.2,32.4,26,32.4z"/>
			<path class="st2" d="M49.3,32.5c0.8,0,1.2-0.5,1.4-1.3c-0.1-0.8-0.5-1.4-1.3-1.4C48.6,29.7,48,30.2,48,31
				C47.9,31.9,48.4,32.4,49.3,32.5z"/>
			<path class="st2" d="M37.5,32.4c0.8,0,1.3-0.5,1.4-1.3c0-0.8-0.4-1.3-1.3-1.4c-0.8,0-1.3,0.5-1.4,1.3
				C36.2,31.8,36.7,32.4,37.5,32.4z"/>
		</g>
	</g>
</g>
</svg>
