<?xml version="1.0" encoding="utf-8"?>
<!-- Generator: Adobe Illustrator 22.0.1, SVG Export Plug-In . SVG Version: 6.00 Build 0)  -->
<svg version="1.1" id="Layer_1" xmlns="http://www.w3.org/2000/svg" xmlns:xlink="http://www.w3.org/1999/xlink" x="0px" y="0px"
	 viewBox="0 0 573.5 102" style="enable-background:new 0 0 573.5 102;" xml:space="preserve">
<style type="text/css">
	.st0{fill:#6B6C6C;}
	.st1{fill:#606060;}
	.st2{fill:#767676;}
	.st3{fill:#FFFFFF;}
	.st4{fill:#979797;}
	.st5{fill:#ACACAC;}
	.st6{fill:#989798;}
	.st7{fill:#BABABA;}
	.st8{fill:#686969;}
	.st9{enable-background:new    ;}
	.st10{display:none;clip-path:url(#SVGID_1_);}
	.st11{display:inline;}
	.st12{clip-path:url(#SVGID_2_);}
	.st13{clip-path:url(#SVGID_3_);}
</style>
<path class="st0" d="M6,4.7v31.1h11.2v5.3H0V4.7H6z M38.3,20.1v-3.3H44v24.3h-5.7v-3.3C37.5,39,36.4,40,35,40.6
	c-1.4,0.7-2.8,1.1-4.2,1.1c-1.8,0-3.5-0.3-5.1-1c-1.5-0.6-2.8-1.6-3.9-2.8s-2-2.5-2.6-4c-0.6-1.6-0.9-3.2-0.9-4.9s0.3-3.3,0.9-4.9
	c0.6-1.5,1.5-2.9,2.6-4.1s2.4-2.1,3.9-2.8c1.5-0.7,3.2-1,5.1-1c1.4,0,2.8,0.4,4.2,1C36.5,18,37.5,18.9,38.3,20.1L38.3,20.1z
	 M37.8,32c0.4-0.9,0.5-2,0.5-3c0-1.1-0.2-2-0.5-3c-0.3-0.9-0.8-1.7-1.5-2.5c-0.6-0.7-1.4-1.3-2.3-1.6c-0.9-0.4-1.9-0.6-2.9-0.6
	c-1.1,0-2,0.2-2.9,0.6c-0.8,0.4-1.6,0.9-2.2,1.6s-1.1,1.6-1.4,2.5c-0.3,1-0.5,2-0.5,3s0.2,2,0.5,3c0.3,0.9,0.8,1.8,1.4,2.4
	c0.6,0.7,1.4,1.3,2.2,1.7c0.9,0.4,1.8,0.6,2.9,0.6s2.1-0.2,2.9-0.6c0.9-0.4,1.6-1,2.3-1.7C37,33.7,37.5,32.9,37.8,32L37.8,32z
	 M48.5,41.1V16.9h15.4v5.6h-9.7v18.7L48.5,41.1L48.5,41.1z M84.4,20.1v-3.3h5.7v24.3h-5.7v-3.3c-0.8,1.2-1.8,2.2-3.2,2.8
	c-1.4,0.7-2.8,1.1-4.3,1.1c-1.8,0-3.5-0.3-5.1-1c-1.5-0.6-2.8-1.6-3.9-2.8s-2-2.5-2.6-4c-0.6-1.6-0.9-3.2-0.9-4.9s0.3-3.3,0.9-4.9
	c0.6-1.5,1.5-2.9,2.6-4.1s2.4-2.1,3.9-2.8c1.5-0.7,3.2-1,5.1-1c1.4,0,2.8,0.4,4.2,1C82.5,18,83.6,18.9,84.4,20.1L84.4,20.1z
	 M83.9,32c0.3-0.9,0.5-2,0.5-3c0-1.1-0.2-2-0.5-3c-0.3-0.9-0.8-1.7-1.4-2.5c-0.6-0.7-1.4-1.3-2.3-1.6c-0.9-0.4-1.9-0.6-2.9-0.6
	c-1.1,0-2,0.2-2.9,0.6c-0.8,0.4-1.6,0.9-2.2,1.6s-1.1,1.6-1.4,2.5c-0.3,1-0.5,2-0.5,3s0.2,2,0.5,3c0.3,0.9,0.8,1.8,1.4,2.4
	c0.6,0.7,1.4,1.3,2.2,1.7c0.9,0.4,1.8,0.6,2.9,0.6s2-0.2,2.9-0.6c0.9-0.4,1.6-1,2.3-1.7C83.1,33.7,83.6,32.9,83.9,32L83.9,32z
	 M112.8,16.9h5.8l-9.3,24.3h-7.1l-9.3-24.3h5.7l7.1,18.6L112.8,16.9L112.8,16.9z M130.9,16.2c7.7,0,13,6.8,12,14.8h-18.8
	c0,2.1,2.1,6.1,7.1,6.1c4.3,0,7.2-3.8,7.2-3.8l3.8,3c-3.4,3.6-6.2,5.3-10.6,5.3c-7.8,0-13.2-5-13.2-12.8
	C118.5,21.9,124,16.2,130.9,16.2L130.9,16.2z M124.1,26.9h13.6c-0.1-0.5-0.8-6.1-6.8-6.1C124.8,20.7,124.2,26.4,124.1,26.9z
	 M146.6,41.1V4.7h5.7v36.4H146.6L146.6,41.1z"/>
<path class="st1" d="M0.2,61l7.6,4.1v7.6h11.1l7,4.1H0.2V61z M28.8,75.6V65.1L20.6,61v9.9L28.8,75.6z M28.8,94.9l-7.6-4.1v-7.6H10.1
	l-7-4.1h25.7C28.8,79.1,28.8,94.9,28.8,94.9z M0.2,80.3v10.5l8.2,4.1V85L0.2,80.3z"/>
<path class="st2" d="M350.3,57.9h60.1c3.8,0,6.9,3.1,6.9,6.9v23c0,3.8-3.1,6.9-6.9,6.9h-21.6l3,7.3l-13-7.3h-28.5
	c-3.8,0-6.9-3.1-6.9-6.9v-23C343.4,61,346.5,57.9,350.3,57.9L350.3,57.9z"/>
<path class="st3" d="M348,63.8c0.5-0.6,1.2-1,2.1-1c1.7-0.1,2.7,0.7,2.9,2.4c1,6.9,2.2,12.8,3.4,17.6l7.3-13.9
	c0.7-1.3,1.5-1.9,2.5-2c1.5-0.1,2.4,0.8,2.7,2.8c0.8,4.4,1.9,8.2,3.2,11.4c0.7-8.4,2.2-14.5,4.2-18.2c0.5-0.9,1.2-1.4,2.2-1.5
	c0.8-0.1,1.5,0.2,2.1,0.7c0.6,0.5,1,1.1,1,1.9c0,0.6-0.1,1.1-0.3,1.6c-1.3,2.4-2.4,6.4-3.2,12c-0.8,5.4-1.1,9.6-0.9,12.7
	c0.1,0.8-0.1,1.6-0.4,2.2c-0.4,0.7-1,1.1-1.8,1.2c-0.9,0.1-1.8-0.3-2.6-1.2c-3.1-3.2-5.6-7.9-7.3-14.2c-2.2,4.3-3.8,7.4-4.8,9.6
	c-2,3.8-3.6,5.7-5,5.8c-0.9,0.1-1.7-0.7-2.3-2.3c-1.7-4.4-3.5-12.8-5.5-25.2C347.4,65.2,347.5,64.4,348,63.8L348,63.8z M419.5,69.1
	c-1.2-2.1-3-3.4-5.3-3.9c-0.6-0.1-1.2-0.2-1.8-0.2c-3.2,0-5.8,1.7-7.8,5c-1.7,2.8-2.6,5.9-2.6,9.4c0,2.6,0.5,4.8,1.6,6.6
	c1.2,2.1,3,3.4,5.3,3.9c0.6,0.1,1.2,0.2,1.8,0.2c3.2,0,5.8-1.7,7.8-5c1.7-2.9,2.6-6,2.6-9.4C421,73,420.5,70.9,419.5,69.1
	L419.5,69.1z M415.3,78.3c-0.5,2.2-1.3,3.8-2.5,4.9c-1,0.9-1.9,1.2-2.7,1.1c-0.8-0.2-1.5-0.9-2-2.2c-0.4-1-0.6-2.1-0.6-3
	c0-0.8,0.1-1.7,0.2-2.4c0.3-1.4,0.9-2.7,1.8-4c1.1-1.6,2.3-2.3,3.5-2.1c0.8,0.2,1.5,0.9,2,2.2c0.4,1,0.6,2.1,0.6,3
	C415.5,76.7,415.5,77.5,415.3,78.3z M398.7,69.1c-1.2-2.1-3-3.4-5.3-3.9c-0.6-0.1-1.2-0.2-1.8-0.2c-3.2,0-5.8,1.7-7.8,5
	c-1.7,2.8-2.6,5.9-2.6,9.4c0,2.6,0.5,4.8,1.6,6.6c1.2,2.1,3,3.4,5.3,3.9c0.6,0.1,1.2,0.2,1.8,0.2c3.2,0,5.8-1.7,7.8-5
	c1.7-2.9,2.6-6,2.6-9.4C400.3,73,399.7,70.9,398.7,69.1L398.7,69.1z M394.5,78.3c-0.5,2.2-1.3,3.8-2.5,4.9c-1,0.9-1.9,1.2-2.7,1.1
	c-0.8-0.2-1.5-0.9-2-2.2c-0.4-1-0.6-2.1-0.6-3c0-0.8,0.1-1.7,0.2-2.4c0.3-1.4,0.9-2.7,1.8-4c1.1-1.6,2.3-2.3,3.5-2.1
	c0.8,0.2,1.5,0.9,2,2.2c0.4,1,0.6,2.1,0.6,3C394.7,76.7,394.5,77.5,394.5,78.3z"/>
<path class="st3" d="M542,0.9c-11-0.1-20,8.9-20,19.9s8.9,20,19.9,20l0,0c11,0,20-8.9,20-19.9S553,0.9,542,0.9
	C542,0.8,542,0.8,542,0.9z"/>
<path class="st0" d="M526,20.8c0,6.3,3.7,11.8,9,14.4l-7.6-20.9C526.5,16.3,526,18.5,526,20.8z M552.8,20c0-2-1.1-3.4-1.7-4.4
	c-0.8-1.3-1.6-2.4-1.6-3.8c0-1.5,1.5-2.8,3-2.8c0.1,0,0.1,0,0.2,0c-2.7-2.6-6.5-4.2-10.7-4.2c-5.4,0-10.2,2.7-13.1,6.7
	c0.2,0.1,0.3,0,0.6,0c1.7,0,4.3-0.2,4.3-0.2c0.9-0.1,1,1.2,0.1,1.3c0,0-0.9,0.1-1.8,0.2l5.9,17.8l3.5-10.5l-2.6-7.2
	c-0.9,0-1.7-0.2-1.7-0.2c-0.9-0.1-0.8-1.4,0.1-1.3c0,0,2.6,0.2,4.2,0.2c1.7,0,4.3-0.2,4.3-0.2c0.9-0.1,1,1.2,0.1,1.3
	c0,0-0.9,0.1-1.8,0.2l5.9,17.6l1.6-5.3C552.4,23.1,552.8,21.4,552.8,20z M542.3,22.2l-4.8,14c1.4,0.4,2.9,0.7,4.5,0.7
	c1.9,0,3.6-0.3,5.3-0.9c0-0.1-0.1-0.1-0.1-0.2L542.3,22.2z M556,13.1c0.1,0.5,0.1,1.1,0.1,1.6c0,1.6-0.3,3.5-1.2,5.7L550,34.6
	c4.8-2.8,8-7.9,8-13.8C558,18,557.3,15.4,556,13.1z"/>
<path class="st2" d="M522,20.8c0,11,9,20,20,20s20-9,20-20s-9-20-20-20S522,9.8,522,20.8z M524,20.8c0-9.9,8.1-18,18-18
	c9.9,0,18,8.1,18,18s-8.1,18-18,18C532.1,38.8,524,30.7,524,20.8z"/>
<path class="st4" d="M79.8,72.2l-3.9,3.6l-3.6-7.3l1.9-4.2c0.5-0.8,1.2-0.8,1.7,0L79.8,72.2z"/>
<path class="st2" d="M72.2,69.5l3.6,7.3L61.3,90.4L72.2,69.5z"/>
<path class="st5" d="M84,67.7c0.7-0.7,1.4-0.4,1.6,0.5l3.8,22.1l-12.6,7.5c-0.4,0.2-1.6,0.3-1.6,0.3s-1.1-0.2-1.5-0.3l-12.5-7.4
	L84,67.7z"/>
<path class="st5" d="M72.2,69.5L61.3,90.4l4.9-30.5c0.2-0.9,0.7-1.1,1.2-0.2L72.2,69.5z"/>
<g>
	<path class="st0" d="M572.4,87.6c-0.6,0-1.1-0.5-1.1-1.1s0.5-1.1,1.1-1.1c0.6,0,1.1,0.5,1.1,1.1C573.4,87.1,572.9,87.6,572.4,87.6
		 M572.4,85.7c-0.5,0-0.8,0.4-0.8,0.8c0,0.5,0.4,0.8,0.8,0.8c0.5,0,0.8-0.4,0.8-0.8C573.2,86.1,572.8,85.7,572.4,85.7 M572.9,87.1
		h-0.2l-0.2-0.4h-0.3v0.4H572v-1.2h0.6c0.2,0,0.4,0.2,0.4,0.4c0,0.2-0.1,0.3-0.2,0.3L572.9,87.1z M572.5,86.5c0.1,0,0.2-0.1,0.2-0.2
		s-0.1-0.2-0.2-0.2h-0.3v0.3L572.5,86.5L572.5,86.5z"/>
	<polygon class="st0" points="462.7,85.4 465.4,85.4 465.4,92.7 470,92.7 470,95.1 462.7,95.1 	"/>
	<path class="st0" d="M472.9,90.3L472.9,90.3c0-2.8,2.2-5.1,5.2-5.1s5.2,2.2,5.2,5l0,0c0,2.8-2.2,5-5.2,5
		C475,95.3,472.9,93.1,472.9,90.3 M480.5,90.3L480.5,90.3c0-1.4-1-2.6-2.5-2.6s-2.4,1.2-2.4,2.6l0,0c0,1.4,1,2.6,2.5,2.6
		C479.5,92.9,480.5,91.7,480.5,90.3"/>
	<path class="st0" d="M486.5,90.8v-5.4h2.7v5.4c0,1.4,0.7,2.1,1.8,2.1s1.8-0.6,1.8-2v-5.5h2.7v5.4c0,3.1-1.8,4.5-4.5,4.5
		C488.3,95.3,486.5,93.9,486.5,90.8"/>
	<path class="st0" d="M499.7,85.4h3.7c3.5,0,5.5,2,5.5,4.8l0,0c0,2.8-2,4.9-5.5,4.9h-3.7V85.4L499.7,85.4z M503.5,92.7
		c1.6,0,2.7-0.9,2.7-2.4l0,0c0-1.6-1.1-2.4-2.7-2.4h-1.1v4.9L503.5,92.7L503.5,92.7z"/>
	<polygon class="st0" points="512.8,85.4 520.5,85.4 520.5,87.8 515.5,87.8 515.5,89.4 520,89.4 520,91.6 515.5,91.6 515.5,95.1 
		512.8,95.1 	"/>
	<polygon class="st0" points="524.3,85.4 526.9,85.4 526.9,92.7 531.5,92.7 531.5,95.1 524.3,95.1 	"/>
	<path class="st0" d="M538.5,85.3h2.6l4.1,9.7h-2.9l-0.7-1.7H538l-0.7,1.7h-2.8L538.5,85.3z M541,91.3l-1.1-2.7l-1.1,2.7H541z"/>
	<path class="st0" d="M548.8,85.4h4.6c1.5,0,2.5,0.4,3.2,1.1c0.6,0.6,0.9,1.3,0.9,2.3l0,0c0,1.5-0.8,2.5-2,3l2.3,3.4h-3.1l-1.9-2.9
		h-1.2v2.9h-2.8V85.4L548.8,85.4z M553.2,90.1c0.9,0,1.4-0.4,1.4-1.1l0,0c0-0.8-0.6-1.1-1.4-1.1h-1.8v2.3h1.8V90.1z"/>
	<polygon class="st0" points="561.3,85.4 569,85.4 569,87.7 563.9,87.7 563.9,89.2 568.5,89.2 568.5,91.3 563.9,91.3 563.9,92.8 
		569,92.8 569,95.1 561.3,95.1 	"/>
	<path class="st0" d="M456.9,91.4c-0.4,0.8-1.2,1.4-2.2,1.4c-1.5,0-2.5-1.2-2.5-2.6l0,0c0-1.4,1-2.6,2.4-2.6c1.1,0,1.9,0.7,2.3,1.6
		h2.8c-0.4-2.3-2.5-4-5.1-4c-3,0-5.2,2.3-5.2,5l0,0c0,2.8,2.2,5,5.2,5c2.6,0,4.6-1.7,5.1-3.9L456.9,91.4L456.9,91.4z"/>
	<g>
		<polygon class="st3" points="565.9,70 558.5,65.7 557.2,65.2 526.9,65.4 526.9,80.8 565.9,80.8 		"/>
		<path class="st6" d="M552.4,79.3c0.4-1.2,0.2-2.4-0.4-3.2c-0.6-0.8-1.5-1.2-2.6-1.3l-21.2-0.3c-0.1,0-0.3-0.1-0.3-0.2
			c-0.1-0.1-0.1-0.2-0.1-0.4c0.1-0.2,0.3-0.4,0.5-0.4l21.4-0.3c2.5-0.1,5.3-2.2,6.3-4.7l1.2-3.2c0.1-0.1,0.1-0.3,0-0.4
			c-1.4-6.2-7-10.9-13.6-10.9c-6.1,0-11.4,4-13.2,9.5c-1.2-0.9-2.7-1.4-4.4-1.2c-3,0.3-5.3,2.7-5.6,5.6c-0.1,0.8,0,1.5,0.2,2.2
			c-4.8,0.1-8.7,4.1-8.7,8.9c0,0.4,0,0.9,0.1,1.3c0,0.2,0.2,0.4,0.4,0.4h39.2c0.2,0,0.4-0.2,0.5-0.4L552.4,79.3z"/>
		<path class="st7" d="M559.2,65.7c-0.2,0-0.4,0-0.6,0c-0.1,0-0.3,0.1-0.3,0.2l-0.8,2.9c-0.4,1.2-0.2,2.4,0.4,3.2
			c0.6,0.8,1.5,1.2,2.6,1.3l4.5,0.3c0.1,0,0.3,0.1,0.3,0.2c0.1,0.1,0.1,0.3,0.1,0.4c-0.1,0.2-0.3,0.4-0.5,0.4l-4.7,0.3
			c-2.6,0.1-5.3,2.2-6.3,4.7l-0.3,0.9c-0.1,0.2,0.1,0.3,0.2,0.3H570c0.2,0,0.4-0.1,0.4-0.3c0.3-1,0.4-2.1,0.4-3.1
			C570.8,70.9,565.5,65.7,559.2,65.7"/>
	</g>
</g>
<circle class="st0" cx="208.6" cy="20.3" r="4.1"/>
<path class="st0" d="M208.6,29.6c-4.9,0.1-9.8-0.5-14.5-2c-2.2-0.7-4.2-1.8-6-3.2c-1.5-1.3-2.3-2.7-2.3-4.1c0-2.7,2.9-5.3,7.9-7.1
	c4.8-1.5,9.8-2.3,14.9-2.2c5.4,0,10.7,0.7,14.7,2.2c2.4,0.8,4.4,1.9,5.8,3.1c1.5,1.3,2.3,2.7,2.3,4.1c0,2.8-3.3,5.7-8.6,7.4
	C218.2,29,213.4,29.7,208.6,29.6L208.6,29.6z M208.6,12.9c-5.3,0-10.4,0.7-14.3,2.1c-3.3,1.1-6.6,3.2-6.6,5.2c0,0.8,0.6,1.8,1.7,2.7
	c1.3,1.1,3.1,2.1,5.3,2.8c4.5,1.4,9.1,2,13.8,1.9c5.2,0,10-0.6,13.6-1.9c5-1.6,7.3-4,7.3-5.6c0-0.7-0.6-1.7-1.6-2.6
	c-1.5-1.2-3.3-2.1-5.2-2.7C218.1,13.6,213.3,12.9,208.6,12.9L208.6,12.9z"/>
<path class="st0" d="M199.3,40.6c-0.9,0-1.6-0.2-2.2-0.5c-2.2-1.4-3-5.2-2.1-10.4c1.1-4.9,3-9.7,5.6-14c2.4-4.4,5.6-8.3,9.2-11.7
	c1.9-1.6,3.8-2.8,5.5-3.5c1.9-0.6,3.5-0.6,4.7,0.1c2.4,1.4,3.2,5.7,2.1,11.2c-1.1,4.7-2.9,9.1-5.4,13.3c-2.3,4.3-5.3,8.2-8.9,11.6
	c-1.9,1.7-3.9,2.9-5.7,3.6C201,40.4,200.1,40.6,199.3,40.6L199.3,40.6z M202.2,16.6c-2.5,4.1-4.3,8.7-5.3,13.4
	c-0.6,3.4-0.5,7.3,1.2,8.3c1.3,0.7,4.5,0.1,8.3-3.3c2.8-2.5,5.8-6.3,8.5-11.1c2.4-3.9,4.1-8.2,5.2-12.7c0.5-2,0.6-4.1,0.3-6.2
	c-0.2-1.5-0.7-2.5-1.5-2.9c-0.7-0.4-1.8-0.3-3.1,0.1C214,3,212.3,4,210.9,5.3C207.5,8.7,204.5,12.5,202.2,16.6L202.2,16.6z"/>
<path class="st0" d="M217.8,40.6c-2.2,0-5-1.4-7.9-3.9c-3.7-3.4-6.9-7.4-9.4-11.8c-2.7-4.6-4.7-9.6-5.5-13.8
	c-0.5-2.4-0.6-4.7-0.2-6.5c0.3-2,1.1-3.4,2.3-4.1c2.4-1.4,6.5,0.1,10.7,3.7c3.5,3.3,6.4,7.1,8.8,11.3c2.6,4.2,4.5,8.7,5.6,13.5
	c0.5,2.5,0.6,4.9,0.2,6.7c-0.4,2-1.2,3.5-2.4,4.2C219.3,40.4,218.6,40.6,217.8,40.6L217.8,40.6z M202.2,24c2.6,4.5,5.9,8.7,9,11.3
	c2.7,2.3,6.1,4.1,7.8,3.1c1.3-0.7,2.3-3.9,1.2-8.8c-1.1-4.6-2.9-8.9-5.3-12.9c-2.2-4-5.1-7.7-8.4-10.8c-1.5-1.4-3.3-2.6-5.2-3.3
	c-1.3-0.6-2.5-0.7-3.2-0.3S197,3.7,196.7,5c-0.3,1.9-0.2,3.9,0.2,5.8C197.7,14.8,199.6,19.5,202.2,24L202.2,24z"/>
<g>
	<path class="st0" d="M260,36.6L251.3,23h-6.8v13.6h-4.3V2.4H254c6.2,0,10.7,4,10.7,10.3c0,6.2-4.2,9.6-8.9,10l9.2,14L260,36.6
		L260,36.6z M260.3,12.7c0-3.9-2.8-6.5-6.8-6.5h-9v13.1h9C257.5,19.3,260.3,16.5,260.3,12.7L260.3,12.7z"/>
</g>
<g>
	<path class="st0" d="M268.8,24.2c0-7.2,5.1-13,12.2-13c7.5,0,11.9,5.8,11.9,13.3v1h-20c0.3,4.7,3.6,8.6,8.9,8.6
		c2.8,0,5.7-1.1,7.6-3.1l1.9,2.5c-2.6,2.6-6.2,3.9-9.8,3.8C274.1,37.2,268.8,32,268.8,24.2L268.8,24.2z M281,14.4
		c-5.3,0-7.9,4.5-8.1,8.2h16.3C289.1,18.9,286.6,14.4,281,14.4z"/>
</g>
<g>
	<path class="st0" d="M313.1,36.6v-2.8c-2.1,2.3-5.1,3.6-8.2,3.5c-4.2,0-8.7-2.8-8.7-8.2c0-5.5,4.5-8.2,8.7-8.2
		c3.4,0,6.2,1.1,8.2,3.4v-4.5c0-3.3-2.7-5.3-6.2-5.3c-3,0-5.4,1.1-7.6,3.5l-1.8-2.7c2.7-2.8,5.8-4.1,9.9-4.1c5.3,0,9.6,2.4,9.6,8.4
		v17L313.1,36.6L313.1,36.6z M313.1,31.4v-4.7c-1.5-2.1-4.1-3.1-6.8-3.1c-3.6,0-6.1,2.3-6.1,5.5c0,3.1,2.5,5.4,6.1,5.4
		C309,34.5,311.6,33.4,313.1,31.4z"/>
</g>
<g>
	<path class="st0" d="M320.7,24.2c0-7.3,5-13,12.4-13c4.5,0,7.2,1.9,9.1,4.3l-2.6,2.4c-1.4-2.1-3.8-3.3-6.3-3.3
		c-5.3,0-8.6,4.1-8.6,9.6s3.3,9.6,8.6,9.6c2.6,0,4.7-1,6.3-3.3l2.6,2.4c-2.1,2.9-5.5,4.5-9.1,4.3C325.6,37.2,320.7,31.6,320.7,24.2z
		 M348.3,31.4V15.2h-4.1v-3.4h4.1V5h3.9v6.8h5.1v3.4h-5.1v15.4c0,1.9,0.8,3.2,2.5,3.2c1.1,0,2.1-0.5,2.6-1l1.1,2.9
		c-1.3,1.1-3,1.7-4.7,1.6C350.1,37.2,348.3,35.2,348.3,31.4z"/>
</g>
<g>
	<path class="st0" d="M457.1,38.6l15-37.1h-9.9l-10.2,24l-7.3-24H437l-7.8,24l-5.5-10.9l-5,15.3l5.1,8.7h9.8l7.1-21.5l6.7,21.5
		L457.1,38.6z"/>
	<path class="st0" d="M402.8,25.9h6.1c1.8,0,3.5-0.2,4.9-0.6l1.6-4.9l4.4-13.6c-0.3-0.5-0.7-1-1.2-1.5c-2.3-2.5-5.6-3.8-9.9-3.8
		h-15.3v37.1h9.4V25.9z M410.9,10.1c0.9,0.9,1.3,2.1,1.3,3.6c0,1.5-0.4,2.7-1.2,3.6c-0.9,1-2.4,1.5-4.7,1.5h-3.5v-10h3.6
		C408.5,8.7,410,9.2,410.9,10.1L410.9,10.1z M466,32l2.8-7.2h8.2l-3.9-10.9l4.9-12.3l14,37.1h-10.3l-2.4-6.6L466,32z"/>
</g>
<g id="Wordmark">
	<g>
		<path class="st8" d="M191.1,60h6.7l11.5,20.7L220.8,60h6.6v34.1h-5.5V68L211.8,86h-5.2L196.6,68v26.1h-5.5V60z"/>
		<path class="st8" d="M245.1,94.7c-2.5,0-4.8-0.6-6.7-1.7c-1.9-1.1-3.4-2.7-4.5-4.7c-1.1-2-1.6-4.3-1.6-6.9c0-2.6,0.5-4.9,1.6-6.9
			c1.1-2,2.5-3.6,4.4-4.7c1.9-1.1,4-1.7,6.5-1.7c2.4,0,4.5,0.6,6.2,1.7c1.7,1.1,3.1,2.7,4,4.8c0.9,2.1,1.4,4.5,1.4,7.3v1.5h-18.7
			c0.3,2.1,1.2,3.7,2.5,4.9c1.3,1.2,3,1.8,5.1,1.8c1.6,0,3.1-0.2,4.2-0.7c1.2-0.5,2.3-1.2,3.3-2.2l2.9,3.6
			C252.9,93.4,249.3,94.7,245.1,94.7z M249.1,74.5c-1.2-1.2-2.7-1.8-4.5-1.8c-1.8,0-3.3,0.6-4.6,1.8c-1.2,1.2-2,2.8-2.3,4.8h13.4
			C251,77.3,250.3,75.6,249.1,74.5z"/>
		<path class="st8" d="M263.1,73.2H258v-4.5h5.1v-7.4h5.3v7.4h7.7v4.5h-7.7v11.4c0,1.9,0.3,3.3,1,4.1c0.6,0.8,1.8,1.2,3.3,1.2
			c0.7,0,1.3,0,1.8-0.1c0.5-0.1,1-0.1,1.6-0.2V94c-0.6,0.2-1.3,0.3-2,0.4c-0.8,0.1-1.5,0.2-2.4,0.2c-5.7,0-8.6-3.1-8.6-9.4V73.2z"/>
		<path class="st8" d="M303.7,94.1h-5.2v-3.6c-0.9,1.3-2.1,2.4-3.5,3.1c-1.4,0.7-3.1,1.1-4.9,1.1c-2.2,0-4.2-0.6-6-1.7
			c-1.7-1.1-3.1-2.7-4.1-4.7c-1-2-1.5-4.3-1.5-6.9c0-2.6,0.5-4.9,1.5-6.9c1-2,2.4-3.6,4.2-4.7c1.8-1.1,3.8-1.7,6.1-1.7
			c1.7,0,3.3,0.3,4.7,1c1.4,0.7,2.5,1.6,3.4,2.9v-3.3h5.2L303.7,94.1L303.7,94.1z M298.4,77.6c-0.6-1.4-1.5-2.6-2.7-3.4
			c-1.2-0.8-2.6-1.3-4.2-1.3c-2.3,0-4.1,0.8-5.4,2.3c-1.3,1.5-2,3.6-2,6.2c0,2.6,0.6,4.7,1.9,6.2c1.3,1.5,3.1,2.3,5.3,2.3
			c1.6,0,3.1-0.4,4.4-1.3c1.3-0.8,2.2-2,2.8-3.4L298.4,77.6L298.4,77.6z"/>
	</g>
</g>
<g>
	<g class="st9">
		<g>
			<g id="Symbol">
				<g>
					<defs>
						<path id="SVGID_7_" d="M164.5,58.8c-4.4,0-7.9,3.3-11,7.6c-4.3-5.5-7.9-7.6-12.2-7.6c-8.8,0-15.5,11.4-15.5,23.5
							c0,7.6,3.7,12.3,9.8,12.3c4.4,0,7.6-2.1,13.2-11.9c0,0,2.4-4.2,4-7c0.6,0.9,1.2,1.9,1.8,3l2.6,4.4c5.2,8.6,8,11.5,13.2,11.5
							c6,0,9.3-4.8,9.3-12.6C179.8,69.5,172.9,58.8,164.5,58.8z M144.5,80.1c-4.6,7.2-6.2,8.8-8.7,8.8c-2.6,0-4.2-2.3-4.2-6.4
							c0-8.8,4.4-17.8,9.6-17.8c2.8,0,5.2,1.6,8.8,6.8C146.6,76.8,144.5,80.1,144.5,80.1z M161.8,79.2l-3.2-5.3
							c-0.9-1.4-1.7-2.7-2.5-3.8c2.9-4.4,5.2-6.6,8-6.6c5.8,0,10.5,8.6,10.5,19.1c0,4-1.3,6.3-4,6.3C168,88.9,166.8,87.1,161.8,79.2
							z"/>
					</defs>
					<use xlink:href="#SVGID_7_"  style="overflow:visible;fill:#686969;"/>
					<clipPath id="SVGID_1_">
						<use xlink:href="#SVGID_7_"  style="overflow:visible;"/>
					</clipPath>
					<g class="st10">
						<g class="st11">
							<g>
								<defs>
									<rect id="SVGID_9_" x="125.7" y="58.7" width="54.3" height="36.2"/>
								</defs>
								<use xlink:href="#SVGID_9_"  style="overflow:visible;fill:#686969;"/>
								<clipPath id="SVGID_2_">
									<use xlink:href="#SVGID_9_"  style="overflow:visible;"/>
								</clipPath>
								<g class="st12">
									<g>
										<defs>
											<rect id="SVGID_11_" x="125.7" y="58.7" width="54.3" height="36.2"/>
										</defs>
										<use xlink:href="#SVGID_11_"  style="overflow:visible;fill:#686969;"/>
										<clipPath id="SVGID_3_">
											<use xlink:href="#SVGID_11_"  style="overflow:visible;"/>
										</clipPath>
										<g class="st13">
											
												<image style="overflow:visible;enable-background:new    ;" width="3160" height="2108" xlink:href="4E02495A.jpg"  transform="matrix(1.718199e-02 0 0 1.718199e-02 125.6484 58.6619)">
											</image>
										</g>
									</g>
								</g>
							</g>
						</g>
					</g>
				</g>
			</g>
		</g>
	</g>
</g>
</svg>
