<?xml version="1.0" encoding="utf-8"?>
<!-- Generator: Adobe Illustrator 21.0.0, SVG Export Plug-In . SVG Version: 6.00 Build 0)  -->
<svg version="1.1" id="Layer_1" xmlns="http://www.w3.org/2000/svg" xmlns:xlink="http://www.w3.org/1999/xlink" x="0px" y="0px"
	 viewBox="0 0 107 107" style="enable-background:new 0 0 107 107;" xml:space="preserve">
<style type="text/css">
	.st0{fill:url(#SVGID_1_);}
	.st1{fill:url(#SVGID_2_);}
	.st2{fill:#FFFFFF;}
</style>
<linearGradient id="SVGID_1_" gradientUnits="userSpaceOnUse" x1="53.5" y1="390.9888" x2="53.5" y2="499.6184" gradientTransform="matrix(1 0 0 1 0 -392)">
	<stop  offset="0" style="stop-color:#0086FF"/>
	<stop  offset="1" style="stop-color:#0044FE"/>
</linearGradient>
<path class="st0" d="M25.2,107C11.3,107,0,95.7,0,81.8V25.2C0,11.3,11.3,0,25.2,0h56.6C95.7,0,107,11.3,107,25.2v56.6
	c0,13.9-11.3,25.2-25.2,25.2H25.2z"/>
<linearGradient id="SVGID_2_" gradientUnits="userSpaceOnUse" x1="51.2987" y1="502.7347" x2="56.9805" y2="355.0074" gradientTransform="matrix(1 0 0 1 0 -392)">
	<stop  offset="0" style="stop-color:#0052FE"/>
	<stop  offset="1" style="stop-color:#0092FF"/>
</linearGradient>
<path class="st1" d="M81.8,106H25.2C11.8,106,1,95.2,1,81.8V25.2C1,11.8,11.8,1,25.2,1h56.6C95.2,1,106,11.8,106,25.2v56.6
	C106,95.2,95.2,106,81.8,106z"/>
<g id="Iconly_Bold_Bag_2_" transform="translate(384 140)">
	
		<image style="overflow:visible;opacity:0.3;enable-background:new    ;" width="109" height="115" xlink:href="1CF35E52.png"  transform="matrix(1 0 0 1 -377 -136)">
	</image>
	<g>
		<g>
			<g id="Bag-2_10_" transform="translate(3 2)">
				<path id="Bag-3_13_" class="st2" d="M-321.1-58.5H-346c-5.7,0-9.7-1.3-12-4c-2.3-2.7-3.1-6.9-2.3-12.5l2.3-18
					c0.4-2.7,1.7-5.2,3.7-7c1.5-1.3,3.5-2.1,5.5-2.1v-0.7c-0.2-5.6,2.6-10.8,7.4-13.7c7.2-4.3,16.6-2,20.9,5.3
					c1.5,2.5,2.3,5.4,2.1,8.4v0.7c2,0,4,0.8,5.5,2.1c1.9,1.9,3.2,4.3,3.7,6.9l2.3,18c1,4.2,0,8.7-2.6,12.1
					C-312.5-59.8-316.7-58.2-321.1-58.5z M-324.9-92.4c-1.5,0-2.6,1.2-2.6,2.6c0,1.5,1.2,2.6,2.6,2.6c1.5,0,2.6-1.2,2.6-2.6
					C-322.2-91.2-323.4-92.4-324.9-92.4L-324.9-92.4z M-342.3-92.4c-1.5,0-2.6,1.2-2.6,2.6s1.2,2.6,2.6,2.6c1.5,0,2.6-1.2,2.6-2.6
					l0,0C-339.6-91.2-340.8-92.4-342.3-92.4C-342.2-92.4-342.3-92.4-342.3-92.4L-342.3-92.4z M-333.6-113.3
					c-5.8,0-10.6,4.7-10.6,10.6v0.7h21.2v-0.7C-323-108.6-327.7-113.3-333.6-113.3z"/>
			</g>
		</g>
	</g>
</g>
</svg>
