<?xml version="1.0" encoding="utf-8"?>
<!-- Generator: Adobe Illustrator 22.0.1, SVG Export Plug-In . SVG Version: 6.00 Build 0)  -->
<svg version="1.1" id="Layer_1" xmlns="http://www.w3.org/2000/svg" xmlns:xlink="http://www.w3.org/1999/xlink" x="0px" y="0px"
	 viewBox="0 0 351.8 66.8" style="enable-background:new 0 0 351.8 66.8;" xml:space="preserve">
<style type="text/css">
	.st0{fill:#003EFF;}
	.st1{fill:#0052FE;}
	.st2{fill:#141414;}
</style>
<path class="st0" d="M72.5,46.3c0-1.2-0.7-2.4-1.7-3.1l-16.2-11L38.7,21.3c-1.5-1-3.4-1-4.8,0L18,32.1l-16.2,11
	c-1,0.7-1.7,1.9-1.7,3.1L0,63.5c0,1.2,0.6,2.2,1.6,2.9C2.5,67,3.5,67,4.7,66.2l31.7-21.6L68,66.2c1.2,0.8,2.2,0.8,3.1,0.2
	c1-0.6,1.5-1.7,1.6-2.9L72.5,46.3z"/>
<path class="st0" d="M70.1,33.5l-13.9-9.6c-0.7-0.5-0.9-1.4-0.4-2.2l4.1-6.1l9.9-14.9c0.9-1.3,2.9-0.7,2.9,0.9l0,30.6
	C72.5,33.4,71.1,34.2,70.1,33.5z"/>
<path class="st1" d="M2.5,33.5l13.9-9.6c0.7-0.5,0.9-1.4,0.4-2.2L2.9,0.7C2-0.6,0,0,0,1.6l0,30.6C0,33.4,1.4,34.2,2.5,33.5z"/>
<path class="st1" d="M72.5,46.3c0-1.2-0.7-2.4-1.7-3.1l-16.2-11L38.7,21.3c-1.5-1-3.4-1-4.8,0L18,32.1l31,21.1L18,32.1l0,0l0,0
	l18.3,12.5l0.1,0L68,66.2c1.2,0.8,2.2,0.8,3.1,0.2c1-0.6,1.5-1.7,1.6-2.9L72.5,46.3z"/>
<path class="st2" d="M139.1,20.3c-1,0-1.8,0.8-1.8,1.8v25.8c0,1.5-0.5,2.7-1.6,3.7c-1,1-2.3,1.5-3.8,1.5c-1.4,0-2.7-0.5-3.7-1.5
	c-0.7-0.6-1.2-1.4-1.4-2.2c-0.1-0.4-0.2-0.9-0.2-1.4v-4.8v-21c0-1-0.8-1.8-1.8-1.8h-7.1c-1,0-1.8,0.8-1.8,1.8v9.2v16.6
	c0,1.5-0.5,2.7-1.5,3.7c-1,1-2.3,1.5-3.9,1.5c-1.5,0-2.7-0.5-3.8-1.5c-1-1-1.5-2.2-1.5-3.7V31.3v-9.2c0-1-0.8-1.8-1.8-1.8h-7
	c-1,0-1.8,0.8-1.8,1.8V43l0,4.6c0,3.2,1,6.4,2.9,9c1.9,2.5,4.6,4.5,7.6,5.5c1.3,0.4,2.6,0.7,3.9,0.8c0,0,0.1,0,0.1,0
	c0.4,0,0.9,0.1,1.3,0.1c0,0,0,0,0,0c0,0,0,0,0,0c0,0,0,0,0,0c0.5,0,1,0,1.4-0.1c0,0,0,0,0.1,0c0.4,0,0.8-0.1,1.1-0.1
	c0.3-0.1,0.7-0.1,1-0.2c0,0,0,0,0,0c2.7-0.6,5.1-1.9,7.1-3.7c1.5,1.3,3.1,2.3,4.8,3c1.8,0.7,3.7,1.1,5.7,1.1c2.1,0,4.1-0.4,6.1-1.2
	c2-0.8,3.7-2,5.1-3.5c1.5-1.5,2.6-3.2,3.4-5.1c0.8-2,1.2-4,1.2-6.1V22.1c0-1-0.8-1.8-1.8-1.8H139.1z"/>
<path class="st2" d="M175.2,20.1c-12.8,0-21.6,9.4-21.6,21.4c0,12.2,8.6,21.4,21.8,21.4c8.3,0,15-3.8,18-10.7
	c0.6-1.2-0.2-2.1-1.6-2.1l-6.5,0.1c-1,0-1.6,0.4-2.4,1.1c-1.6,1.7-4.4,3-7.4,3c-5.2,0-9.6-2.6-11-8.4H185h8.4c1.2,0,1.9-0.5,2.1-1.8
	c0.1-0.8,0.1-1.6,0.1-2.5C195.6,29.6,187.3,20.1,175.2,20.1z M164.5,37.7c1.2-5.1,5.1-8.1,10.6-8.1c4.4,0,8.7,2.3,9.9,8.1H164.5z"/>
<path class="st2" d="M225,20.1c-5.9,0-10.3,2.2-13.2,5.9V6.9c0-1.2-0.7-1.9-1.9-1.9h-6.6c-1.2,0-1.9,0.7-1.9,1.9V60
	c0,1.2,0.7,1.9,1.9,1.9h6.6c1.2,0,1.9-0.7,1.9-1.9v-2.9c2.9,3.7,7.3,5.9,13.2,5.9c10.9,0,19.8-9.3,19.8-21.4S235.9,20.1,225,20.1z
	 M223.1,53.1c-6.5,0-11.3-4.6-11.3-11.5s4.8-11.5,11.3-11.5c6.5,0,11.3,4.6,11.3,11.5S229.6,53.1,223.1,53.1z"/>
<path class="st2" d="M272.2,20.1c-11.9,0-21.5,9.3-21.5,21.4S260.2,63,272.2,63s21.5-9.3,21.5-21.4S284.1,20.1,272.2,20.1z
	 M272.2,52.8c-6.2,0-11-4.6-11-11.2s4.8-11.2,11-11.2c6.2,0,11,4.6,11,11.2S278.4,52.8,272.2,52.8z"/>
<path class="st2" d="M320,3.8c-11.6,0-17.2,6.4-17.2,17.1v0.4H299c-1.2,0-1.9,0.7-1.9,1.9v6.2c0,1.2,0.7,1.9,1.9,1.9h3.9V60
	c0,1.2,0.7,1.9,1.9,1.9h6.6c1.2,0,1.9-0.7,1.9-1.9V31.3h6.7c1.2,0,1.9-0.7,1.9-1.9v-6.2c0-1.2-0.7-1.9-1.9-1.9h-6.7v-0.4
	c0-4.7,2.4-7,6.6-7c1.3,0,2-0.6,2-1.9V5.8C322,4.6,321.3,3.8,320,3.8z"/>
<path class="st2" d="M349.9,61.9c-11.6,0-17.2-6.4-17.2-17.1V31.4h-6.9c-1.2,0-1.9-0.7-1.9-1.9v-6.2c0-1.2,0.7-1.9,1.9-1.9h6.9V5.7
	c0-1.2,0.7-1.9,1.9-1.9h6.6c1.2,0,1.9,0.7,1.9,1.9v15.6h6.7c1.2,0,1.9,0.7,1.9,1.9v6.2c0,1.2-0.7,1.9-1.9,1.9h-6.7v13.5
	c0,4.7,2.4,7,6.6,7c1.3,0,2,0.6,2,1.9v6.2C351.8,61.1,351.1,61.9,349.9,61.9z"/>
</svg>
