<?xml version="1.0" encoding="utf-8"?>
<!-- Generator: Adobe Illustrator 21.0.0, SVG Export Plug-In . SVG Version: 6.00 Build 0)  -->
<svg version="1.1" id="Layer_1" xmlns="http://www.w3.org/2000/svg" xmlns:xlink="http://www.w3.org/1999/xlink" x="0px" y="0px"
	 viewBox="0 0 107 107" style="enable-background:new 0 0 107 107;" xml:space="preserve">
<style type="text/css">
	.st0{fill:url(#SVGID_1_);}
	.st1{fill:url(#SVGID_2_);}
	.st2{fill:#FFFFFF;}
</style>
<linearGradient id="SVGID_1_" gradientUnits="userSpaceOnUse" x1="53.5168" y1="-1.0112" x2="53.5168" y2="107.6184">
	<stop  offset="0" style="stop-color:#0086FF"/>
	<stop  offset="1" style="stop-color:#0044FE"/>
</linearGradient>
<path class="st0" d="M25.2,107C11.3,107,0,95.7,0,81.8V25.2C0,11.3,11.3,0,25.2,0h56.6C95.7,0,107,11.3,107,25.2v56.6
	c0,13.9-11.3,25.2-25.2,25.2H25.2z"/>
<linearGradient id="SVGID_2_" gradientUnits="userSpaceOnUse" x1="51.3163" y1="110.7354" x2="56.9981" y2="-36.9919">
	<stop  offset="0" style="stop-color:#0052FE"/>
	<stop  offset="1" style="stop-color:#0092FF"/>
</linearGradient>
<path class="st1" d="M81.8,106H25.2C11.8,106,1,95.2,1,81.8V25.2C1,11.8,11.8,1,25.2,1h56.6C95.2,1,106,11.8,106,25.2v56.6
	C106,95.2,95.2,106,81.8,106z"/>
<g>
	
		<image style="overflow:visible;opacity:0.3;" width="476" height="477" xlink:href="FF4E6BB8.png"  transform="matrix(0.24 0 0 0.24 4.34 4.44)">
	</image>
	<g>
		<g>
			<path class="st2" d="M60.5,57.6c0-2-0.1-4,0-6c0-1.3-0.2-2.5-0.8-3.6c-1.5-3-3-5.9-4.4-8.9c-0.4-0.8-0.9-1.4-1.9-1.3
				c-0.9,0-1.4,0.6-1.8,1.3c-1.6,3.2-3.1,6.4-4.7,9.5c-0.4,0.8-0.5,1.6-0.5,2.5c0,4.5,0,9.1,0,13.6c0,0.9-0.2,1.2-1.1,1.1
				c-1.2-0.1-2.4,0-3.6,0c-0.5,0-0.8-0.2-0.9-0.7c-0.5-2.7-1.9-4.9-3.6-7c-9.4-11.4-4.5-28.9,9.5-33.5c14.8-4.9,29.6,7.2,27.6,22.7
				c-0.5,3.9-1.9,7.5-4.4,10.5c-1.8,2.2-3.4,4.5-3.8,7.4c-0.1,0.6-0.5,0.6-1,0.6c-1.2,0-2.5,0-3.7,0c-0.8,0-0.9-0.3-0.9-1
				C60.6,62.4,60.5,60,60.5,57.6z"/>
			<path class="st2" d="M53.6,69.3c3.7,0,7.4,0,11.1,0c0.9,0,1.1,0.3,1.1,1.1c0,3.7-2.1,5.9-5.9,5.9c-4.3,0-8.6,0-12.9,0
				c-3.8,0-5.9-2.2-5.9-6c0-0.8,0.3-1.1,1.1-1C46.1,69.3,49.8,69.3,53.6,69.3z"/>
			<path class="st2" d="M57,52.8c0,4.2,0,8.3,0,12.3c0,0.5-0.2,0.7-0.7,0.7c-1.9,0-3.7,0-5.6,0c-0.5,0-0.8-0.2-0.8-0.7
				c0-3.9,0-7.7,0-11.6c0-0.4-0.1-0.8,0.6-0.6C52.7,53.5,54.8,53.4,57,52.8z"/>
			<path class="st2" d="M53.5,79.8c2.5,0,5,0,7.5,0c0.8,0,1,0.2,0.6,0.9c-1,1.6-2.4,2.7-4.4,2.7c-2.5,0.1-4.9,0.1-7.4,0
				c-1.9,0-3.2-1-4.2-2.5c-0.2-0.3-0.5-0.6-0.3-0.9c0.2-0.3,0.6-0.1,0.9-0.1C48.6,79.8,51.1,79.8,53.5,79.8z"/>
			<path class="st2" d="M27,48.2c-0.7,0-1.3,0.1-2,0c-0.9-0.1-1.5-0.7-1.5-1.7c0-1,0.5-1.7,1.5-1.7c1.3-0.1,2.6-0.1,4,0
				c0.9,0.1,1.5,0.7,1.5,1.7c0,1-0.5,1.6-1.5,1.7C28.4,48.3,27.7,48.2,27,48.2C27,48.2,27,48.2,27,48.2z"/>
			<path class="st2" d="M79.9,44.7c0.7,0,1.3-0.1,2,0c1,0.1,1.6,0.7,1.6,1.7c0,1-0.6,1.6-1.6,1.7c-1.3,0.1-2.6,0.1-3.8,0
				c-1-0.1-1.6-0.7-1.6-1.7c0-1,0.6-1.6,1.6-1.7C78.7,44.7,79.3,44.7,79.9,44.7z"/>
			<path class="st2" d="M30.1,37c0,0.8-0.3,1.3-0.9,1.7c-0.6,0.4-1.3,0.4-1.9-0.1c-1-0.9-2-1.9-2.9-2.9C24,35,24,34.2,24.6,33.5
				c0.5-0.6,1.3-0.9,2-0.4c1.3,0.9,2.4,2.1,3.4,3.3C30.1,36.6,30.1,36.9,30.1,37z"/>
			<path class="st2" d="M81,32.9c0.7,0.1,1.3,0.3,1.6,1c0.3,0.6,0.4,1.3-0.1,1.8c-0.9,1-1.9,2.1-3,3c-0.7,0.6-1.5,0.4-2.1-0.1
				c-0.6-0.6-0.8-1.4-0.4-2c0.9-1.3,2-2.4,3.3-3.3C80.6,33,80.9,33,81,32.9z"/>
			<path class="st2" d="M30.1,55.9c0,0.1,0,0.4-0.1,0.6c-1,1.3-2.1,2.5-3.5,3.4c-0.7,0.5-1.5,0.1-2-0.5c-0.5-0.6-0.6-1.4-0.1-2
				c0.9-1.1,1.9-2,3-3c0.5-0.4,1.2-0.4,1.8-0.1C29.8,54.6,30.1,55.1,30.1,55.9z"/>
			<path class="st2" d="M82.8,58.1c0,0.9-0.3,1.4-0.9,1.7c-0.6,0.4-1.3,0.3-1.9-0.2c-1-0.9-1.9-1.8-2.8-2.8c-0.6-0.7-0.5-1.5,0-2.1
				c0.5-0.7,1.3-1,2.1-0.5c1.3,0.9,2.3,2,3.3,3.3C82.8,57.7,82.8,58,82.8,58.1z"/>
			<path class="st2" d="M53.5,43.4c1,1.9,1.8,3.6,2.7,5.3c0.2,0.4,0.1,0.5-0.3,0.7c-1.6,0.5-3.1,0.5-4.7,0c-0.6-0.2-0.5-0.4-0.3-0.9
				C51.8,46.9,52.6,45.3,53.5,43.4z"/>
		</g>
	</g>
</g>
</svg>
