<?xml version="1.0" encoding="utf-8"?>
<!-- Generator: Adobe Illustrator 21.0.0, SVG Export Plug-In . SVG Version: 6.00 Build 0)  -->
<svg version="1.1" id="Layer_1" xmlns="http://www.w3.org/2000/svg" xmlns:xlink="http://www.w3.org/1999/xlink" x="0px" y="0px"
	 viewBox="0 0 107 107" style="enable-background:new 0 0 107 107;" xml:space="preserve">
<style type="text/css">
	.st0{fill:url(#SVGID_1_);}
	.st1{fill:url(#SVGID_2_);}
	.st2{fill:#FFFFFF;}
</style>
<linearGradient id="SVGID_1_" gradientUnits="userSpaceOnUse" x1="53.5168" y1="-1.0112" x2="53.5168" y2="107.6184">
	<stop  offset="0" style="stop-color:#0086FF"/>
	<stop  offset="1" style="stop-color:#0044FE"/>
</linearGradient>
<path class="st0" d="M25.2,107C11.3,107,0,95.7,0,81.8V25.2C0,11.3,11.3,0,25.2,0h56.6C95.7,0,107,11.3,107,25.2v56.6
	c0,13.9-11.3,25.2-25.2,25.2H25.2z"/>
<linearGradient id="SVGID_2_" gradientUnits="userSpaceOnUse" x1="51.3163" y1="110.7354" x2="56.9981" y2="-36.9919">
	<stop  offset="0" style="stop-color:#0052FE"/>
	<stop  offset="1" style="stop-color:#0092FF"/>
</linearGradient>
<path class="st1" d="M81.8,106H25.2C11.8,106,1,95.2,1,81.8V25.2C1,11.8,11.8,1,25.2,1h56.6C95.2,1,106,11.8,106,25.2v56.6
	C106,95.2,95.2,106,81.8,106z"/>
<g>
	
		<image style="overflow:visible;opacity:0.3;" width="509" height="491" xlink:href="DE848965.png"  transform="matrix(0.24 0 0 0.24 0.5 2.76)">
	</image>
	<g>
		<g>
			<path class="st2" d="M52.3,49.6c0.1-0.2,0.1-0.3,0.1-0.4c0-0.7,0-1.4,0-2.2c0.1-1.2,0-2.3-0.6-3.4c-0.1-0.3-0.1-0.4,0.3-0.4
				c1,0,2,0,3,0c0.3,0,0.4,0.1,0.3,0.3c-0.6,1.2-0.6,2.4-0.6,3.6c0,0.8,0,1.7,0,2.6c0.2-0.1,0.2-0.3,0.3-0.4
				c1.1-2.9,2.2-5.8,3.3-8.8c0.1-0.4,0.3-0.5,0.7-0.3c2.1,0.7,4.3,1.5,6.2,2.6c3.5,2,5.4,5.1,5.5,9.1c0,1,0,2,0,2.9
				c0,0.3-0.2,0.5-0.3,0.7c-3.5,4.6-8,7.5-13.7,8.3C48.2,65,41.3,61.9,36.2,55c-0.2-0.3-0.3-0.5-0.3-0.8c0-1.6,0-3.2,0.3-4.7
				c0.5-3.1,2.1-5.4,4.9-6.9c2.1-1.2,4.5-1.8,6.8-2.4c0.3-0.1,0.4,0.1,0.4,0.3c1.2,2.9,2.5,5.8,3.7,8.8
				C52.1,49.3,52.1,49.5,52.3,49.6z"/>
			<path class="st2" d="M55,72.8c0,0.6,0,1.1,0,1.7c0,0.3,0.1,0.5,0.4,0.7c2.2,0.9,3.5,3,3.2,5.3c-0.2,2.3-1.9,4.2-4.2,4.7
				c-2.6,0.5-5.2-1-6-3.6c-0.8-2.5,0.4-5.3,2.8-6.3c0.4-0.2,0.5-0.4,0.5-0.7c0-1.1,0-2.3,0-3.4c0-0.3-0.1-0.4-0.4-0.5
				c-6.9-0.6-12.7-3.4-17.5-8.5c-0.2-0.2-0.4-0.3-0.6-0.1c-1,0.8-2,1.6-3,2.4C30,64.6,30,64.8,30,65.1c0.6,2.5-0.6,4.9-2.9,6
				c-2.3,1-4.9,0.3-6.4-1.7c-1.5-2-1.3-4.8,0.4-6.6c1.7-1.9,4.4-2.2,6.6-0.9c0.3,0.2,0.4,0.2,0.7,0c1.8-1.4,3.6-2.9,5.4-4.3
				c0.3-0.2,0.4-0.2,0.7,0.1c3.8,5.2,8.8,8.5,15.2,9.5c8.6,1.3,15.9-1.4,21.7-8c0.4-0.5,0.8-1,1.2-1.5c0.2-0.3,0.3-0.3,0.6-0.1
				c1.8,1.5,3.7,2.9,5.5,4.4c0.3,0.2,0.4,0.2,0.7,0c2.1-1.3,4.7-1.1,6.4,0.6c1.8,1.7,2.2,4.3,1,6.4c-1.2,2.1-3.7,3.1-6,2.4
				c-2.3-0.7-3.9-2.8-3.8-5.3c0-0.1,0-0.3,0-0.4c0.3-0.7,0-1-0.6-1.4c-0.9-0.7-1.8-1.4-2.7-2.1c-0.3-0.2-0.4-0.2-0.7,0
				c-2.9,3.2-6.5,5.5-10.5,7c-2.2,0.8-4.5,1.3-6.8,1.5c-0.4,0-0.5,0.1-0.5,0.5C55.1,71.7,55,72.3,55,72.8z"/>
			<path class="st2" d="M61.1,31.2c-0.2,3.3-1.3,6.4-3.8,9.1c-0.3,0.4-0.7,0.7-1.1,0.9c-1.8,1.2-3.7,1.2-5.5,0
				c-1.4-1-2.3-2.3-3.1-3.7c-1.4-2.7-2.1-5.6-1.6-8.6c0.3-1.8,1.1-3.4,2.4-4.7c2.9-3,7.4-3,10.2,0.2C60.3,26.1,61,28.3,61.1,31.2z"
				/>
		</g>
	</g>
</g>
</svg>
