<?xml version="1.0" encoding="utf-8"?>
<!-- Generator: Adobe Illustrator 21.0.0, SVG Export Plug-In . SVG Version: 6.00 Build 0)  -->
<svg version="1.1" id="Layer_1" xmlns="http://www.w3.org/2000/svg" xmlns:xlink="http://www.w3.org/1999/xlink" x="0px" y="0px"
	 viewBox="0 0 107 107" style="enable-background:new 0 0 107 107;" xml:space="preserve">
<style type="text/css">
	.st0{fill:url(#SVGID_1_);}
	.st1{fill:url(#SVGID_2_);}
	.st2{fill:#FFFFFF;}
</style>
<linearGradient id="SVGID_1_" gradientUnits="userSpaceOnUse" x1="53.5168" y1="-1.0112" x2="53.5168" y2="107.6184">
	<stop  offset="0" style="stop-color:#0086FF"/>
	<stop  offset="1" style="stop-color:#0044FE"/>
</linearGradient>
<path class="st0" d="M25.2,107C11.3,107,0,95.7,0,81.8V25.2C0,11.3,11.3,0,25.2,0h56.6C95.7,0,107,11.3,107,25.2v56.6
	c0,13.9-11.3,25.2-25.2,25.2H25.2z"/>
<linearGradient id="SVGID_2_" gradientUnits="userSpaceOnUse" x1="51.3163" y1="110.7354" x2="56.9981" y2="-36.9919">
	<stop  offset="0" style="stop-color:#0052FE"/>
	<stop  offset="1" style="stop-color:#0092FF"/>
</linearGradient>
<path class="st1" d="M81.8,106H25.2C11.8,106,1,95.2,1,81.8V25.2C1,11.8,11.8,1,25.2,1h56.6C95.2,1,106,11.8,106,25.2v56.6
	C106,95.2,95.2,106,81.8,106z"/>
<g>
	
		<image style="overflow:visible;opacity:0.24;" width="500" height="451" xlink:href="E80260D6.png"  transform="matrix(0.24 0 0 0.24 -4.42 4.32)">
	</image>
	<g>
		<g>
			<path class="st2" d="M80.9,50.8c0,8,0,16.1,0,24.1c0,1.1,0,2.2-1.2,2.8c-1.2,0.6-2.1-0.1-3-0.8c-8.8-7.5-19-11.7-30.5-12.7
				c-1-0.1-1.2-0.4-1.2-1.3c0-8.1,0-16.2,0-24.3c0-0.9,0.3-1.2,1.2-1.3c11.5-1,21.7-5.2,30.5-12.7c0.9-0.8,1.8-1.4,3-0.8
				c1.2,0.6,1.2,1.6,1.2,2.8C80.9,34.6,80.9,42.7,80.9,50.8z"/>
			<path class="st2" d="M40.8,50.8c0,3.9,0,7.9,0,11.8c0,1-0.2,1.4-1.3,1.4c-2.9-0.1-5.8,0-8.6,0c-2,0-2.7-0.7-2.7-2.7
				c0-7,0-14,0-21.1c0-2,0.7-2.7,2.6-2.7c2.9,0,5.9,0,8.8,0c1,0,1.2,0.3,1.2,1.2C40.8,42.7,40.8,46.7,40.8,50.8z"/>
			<path class="st2" d="M40.8,75.2c0,1.9,0,3.8,0,5.7c0,1.8-0.7,2.6-2.5,2.6c-1.9,0-3.7,0-5.6,0c-1.6,0-2.4-0.8-2.4-2.4
				c0-3.9,0-7.9,0-11.8c0-0.9,0.3-1.1,1.1-1.1c2.7,0,5.5,0.1,8.2,0c1,0,1.2,0.3,1.2,1.2C40.8,71.3,40.8,73.2,40.8,75.2z"/>
			<path class="st2" d="M24.1,50.7c0,2.7,0,5.5,0,8.2c0,0.9-0.2,1.3-1.2,1.2c-0.9-0.1-1.9,0-2.8,0c-1.5-0.1-2.3-0.8-2.3-2.4
				c0-4.7,0-9.4,0-14.1c0-1.6,0.8-2.4,2.4-2.4c0.9,0,1.9,0,2.8,0c0.9-0.1,1.1,0.3,1.1,1.1C24.1,45.2,24.1,48,24.1,50.7z"/>
			<path class="st2" d="M85.1,59c0-5.6,0-10.9,0-16.3C89.4,44.8,91.7,53.8,85.1,59z"/>
		</g>
	</g>
</g>
</svg>
